<svg width="48" height="48" viewBox="0 0 48 48" fill="none" xmlns="http://www.w3.org/2000/svg">
<rect width="48" height="48" fill="#3D298E"/>
<path d="M6.19184 7.21435H37.0881V34.9575H6.19184V7.21435Z" fill="#4E34B4"/>
<path d="M6.8336 34.0906V34.3036H7.05009V34.9575H6.19184V34.0906H6.8336ZM10.483 34.3036V34.9575H8.7665V34.3036H10.483ZM13.9159 34.3036V34.9575H12.1994V34.3036H13.9159ZM17.3488 34.3036V34.9575H15.6324V34.3036H17.3488ZM20.7817 34.3036V34.9575H19.0653V34.3036H20.7817ZM24.2146 34.3036V34.9575H22.4982V34.3036H24.2146ZM27.6475 34.3036V34.9575H25.9311V34.3036H27.6475ZM31.0805 34.3036V34.9575H29.364V34.3036H31.0805ZM34.5134 34.3036V34.9575H32.7969V34.3036H34.5134ZM37.0881 34.0906V34.9575H36.2298V34.3036H36.4463V34.0906H37.0881ZM6.8336 30.6227V32.3566H6.19184V30.6227H6.8336ZM37.0881 30.6227V32.3566H36.4463V30.6227H37.0881ZM6.8336 27.1548V28.8887H6.19184V27.1548H6.8336ZM37.0881 27.1548V28.8887H36.4463V27.1548H37.0881ZM6.8336 23.6869V25.4208H6.19184V23.6869H6.8336ZM37.0881 23.6869V25.4208H36.4463V23.6869H37.0881ZM6.8336 20.219V21.9529H6.19184V20.219H6.8336ZM37.0881 20.219V21.9529H36.4463V20.219H37.0881ZM6.8336 16.7511V18.485H6.19184V16.7511H6.8336ZM37.0881 16.7511V18.485H36.4463V16.7511H37.0881ZM6.8336 13.2832V15.0171H6.19184V13.2832H6.8336ZM37.0881 13.2832V15.0171H36.4463V13.2832H37.0881ZM6.8336 9.81527V11.5492H6.19184V9.81527H6.8336ZM37.0881 9.81527V11.5492H36.4463V9.81527H37.0881ZM7.05009 7.21435V7.86823H6.8336V8.08132H6.19184V7.21435H7.05009ZM37.0881 7.21435V8.08132H36.4463V7.86823H36.2298V7.21435H37.0881ZM10.483 7.21435V7.86823H8.7665V7.21435H10.483ZM13.9159 7.21435V7.86823H12.1994V7.21435H13.9159ZM17.3488 7.21435V7.86823H15.6324V7.21435H17.3488ZM20.7817 7.21435V7.86823H19.0653V7.21435H20.7817ZM24.2146 7.21435V7.86823H22.4982V7.21435H24.2146ZM27.6475 7.21435V7.86823H25.9311V7.21435H27.6475ZM31.0805 7.21435V7.86823H29.364V7.21435H31.0805ZM34.5134 7.21435V7.86823H32.7969V7.21435H34.5134Z" fill="white"/>
<path d="M7.56705 7.30776C7.56705 8.03001 6.99239 8.61552 6.28352 8.61552C5.57465 8.61552 5 8.03001 5 7.30776C5 6.5855 5.57465 6 6.28352 6C6.99239 6 7.56705 6.5855 7.56705 7.30776Z" fill="#4E34B4"/>
<path d="M7.01697 7.30776C7.01697 6.89504 6.68859 6.56047 6.28352 6.56047C5.87845 6.56047 5.55008 6.89504 5.55008 7.30776C5.55008 7.72048 5.87845 8.05505 6.28352 8.05505V8.61552C5.57465 8.61552 5 8.03001 5 7.30776C5 6.5855 5.57465 6 6.28352 6C6.99239 6 7.56705 6.5855 7.56705 7.30776C7.56705 8.03001 6.99239 8.61552 6.28352 8.61552V8.05505C6.68859 8.05505 7.01697 7.72048 7.01697 7.30776Z" fill="white"/>
<path d="M7.56705 34.9575C7.56705 35.6798 6.99239 36.2653 6.28352 36.2653C5.57465 36.2653 5 35.6798 5 34.9575C5 34.2353 5.57465 33.6498 6.28352 33.6498C6.99239 33.6498 7.56705 34.2353 7.56705 34.9575Z" fill="#4E34B4"/>
<path d="M7.01697 34.9575C7.01697 34.5448 6.68859 34.2102 6.28352 34.2102C5.87845 34.2102 5.55008 34.5448 5.55008 34.9575C5.55008 35.3702 5.87845 35.7048 6.28352 35.7048V36.2653C5.57465 36.2653 5 35.6798 5 34.9575C5 34.2353 5.57465 33.6498 6.28352 33.6498C6.99239 33.6498 7.56705 34.2353 7.56705 34.9575C7.56705 35.6798 6.99239 36.2653 6.28352 36.2653V35.7048C6.68859 35.7048 7.01697 35.3702 7.01697 34.9575Z" fill="white"/>
<path d="M38.3716 7.30776C38.3716 8.03001 37.797 8.61552 37.0881 8.61552C36.3792 8.61552 35.8046 8.03001 35.8046 7.30776C35.8046 6.5855 36.3792 6 37.0881 6C37.797 6 38.3716 6.5855 38.3716 7.30776Z" fill="#4E34B4"/>
<path d="M37.8215 7.30776C37.8215 6.89504 37.4931 6.56047 37.0881 6.56047C36.683 6.56047 36.3546 6.89504 36.3546 7.30776C36.3546 7.72048 36.683 8.05505 37.0881 8.05505V8.61552C36.3792 8.61552 35.8046 8.03001 35.8046 7.30776C35.8046 6.5855 36.3792 6 37.0881 6C37.797 6 38.3716 6.5855 38.3716 7.30776C38.3716 8.03001 37.797 8.61552 37.0881 8.61552V8.05505C37.4931 8.05505 37.8215 7.72048 37.8215 7.30776Z" fill="white"/>
<path d="M38.3716 34.9575C38.3716 35.6798 37.797 36.2653 37.0881 36.2653C36.3792 36.2653 35.8046 35.6798 35.8046 34.9575C35.8046 34.2353 36.3792 33.6498 37.0881 33.6498C37.797 33.6498 38.3716 34.2353 38.3716 34.9575Z" fill="#4E34B4"/>
<path d="M37.8215 34.9575C37.8215 34.5448 37.4931 34.2102 37.0881 34.2102C36.683 34.2102 36.3546 34.5448 36.3546 34.9575C36.3546 35.3702 36.683 35.7048 37.0881 35.7048V36.2653C36.3792 36.2653 35.8046 35.6798 35.8046 34.9575C35.8046 34.2353 36.3792 33.6498 37.0881 33.6498C37.797 33.6498 38.3716 34.2353 38.3716 34.9575C38.3716 35.6798 37.797 36.2653 37.0881 36.2653V35.7048C37.4931 35.7048 37.8215 35.3702 37.8215 34.9575Z" fill="white"/>
<path d="M38.3728 30.8724L33.0425 30.8355L33.0787 36.2665L34.8504 34.4614L40.0721 39.7817L38.3004 41.5869L43.6308 41.6237L43.5946 36.1928L41.8228 37.9979L36.6011 32.6776L38.3728 30.8724Z" fill="black"/>
<path d="M36.0825 32.6776L37.4934 31.24L33.4117 31.2118L33.4395 35.3705L34.8504 33.933L40.5907 39.7817L39.1798 41.2193L43.2615 41.2476L43.2338 37.0887L41.8228 38.5263L36.0825 32.6776ZM41.8228 37.4695L43.9553 35.2968L44 42L37.4211 41.9544L39.5535 39.7817L34.8504 34.9898L32.718 37.1625L32.6733 30.4594L39.2522 30.5049L37.1197 32.6776L41.8228 37.4695Z" fill="white"/>
</svg>
